<?xml version="1.0" encoding="utf-8"?>
<!-- Generator: Adobe Illustrator 27.2.0, SVG Export Plug-In . SVG Version: 6.00 Build 0)  -->
<svg version="1.1" id="Layer_2_00000085956325934909748280000011915871456466423707_"
	 xmlns="http://www.w3.org/2000/svg" xmlns:xlink="http://www.w3.org/1999/xlink" x="0px" y="0px" viewBox="0 0 60 60"
	 style="enable-background:new 0 0 60 60;" xml:space="preserve">
<style type="text/css">
	.st0{fill:none;stroke:#333333;stroke-width:1.5;stroke-linecap:round;stroke-linejoin:round;stroke-miterlimit:10;}
	.st1{fill:none;stroke:#009CDE;stroke-width:1.5;stroke-linecap:round;stroke-linejoin:round;stroke-miterlimit:10;}
</style>
<g>
	<g>
		<path class="st0" d="M32.5,38.5c-22.8,0-22.8,0-22.8,0c-2.5,0-5.1-2.6-5.1-5.2c0-20.7,0-20.7,0-20.7c0-2.6,2.5-5.2,5.1-5.2
			c32.9,0,32.9,0,32.9,0c2.5,0,5.1,2.6,5.1,5.2c0,10.3,0,10.3,0,10.3"/>
		<line class="st0" x1="4.7" y1="15.5" x2="47.7" y2="15.5"/>
		<line class="st0" x1="24.7" y1="20.5" x2="11.7" y2="20.5"/>
		<line class="st0" x1="42.7" y1="20.5" x2="37.7" y2="20.5"/>
		<line class="st0" x1="19.7" y1="25.5" x2="11.7" y2="25.5"/>
	</g>
	<path class="st1" d="M35.7,37.8c0-1.1,1.1-2.2,2.2-2.2c15.3,0,15.3,0,15.3,0c1.1,0,2.2,1.1,2.2,2.2c0,12.6,0,12.6,0,12.6
		c0,1.1-1.1,2.2-2.2,2.2c-15.3,0-15.3,0-15.3,0c-1.1,0-2.2-1.1-2.2-2.2V37.8z"/>
	<path class="st1" d="M49.6,35.5V32c0-2.2-1.8-4-4-4s-4,1.8-4,4v3.4"/>
	<path class="st1" d="M45.6,25.3c3.7,0,6.7,3,6.7,6.7v3.4"/>
	<path class="st1" d="M38.9,35.5V32c0-3.7,3-6.7,6.7-6.7"/>
	<path class="st1" d="M45.6,47.8c-0.6,0-1.2-0.5-1.2-1v-2.2c0-0.1,0-0.2-0.1-0.2c-0.9-0.6-1.3-1.8-0.8-2.9c0.3-0.7,0.9-1.1,1.6-1.3
		c1.5-0.3,2.8,0.8,2.8,2.2c0,0.7-0.4,1.5-1,2c-0.1,0-0.1,0.1-0.1,0.2v2.3c-0.2,0.6-0.8,0.8-1,0.9L45.6,47.8L45.6,47.8z"/>
</g>
</svg>
