<?xml version="1.0" encoding="utf-8"?>
<!-- Generator: Adobe Illustrator 27.2.0, SVG Export Plug-In . SVG Version: 6.00 Build 0)  -->
<svg version="1.1" id="Layer_2_00000085956325934909748280000011915871456466423707_"
	 xmlns="http://www.w3.org/2000/svg" xmlns:xlink="http://www.w3.org/1999/xlink" x="0px" y="0px" viewBox="0 0 60 60"
	 style="enable-background:new 0 0 60 60;" xml:space="preserve">
<style type="text/css">
	.st0{fill:none;stroke:#333333;stroke-width:1.5;stroke-linecap:round;stroke-linejoin:round;stroke-miterlimit:10;}
	.st1{fill:none;stroke:#009CDE;stroke-width:1.5;stroke-linecap:round;stroke-linejoin:round;stroke-miterlimit:10;}
</style>
<g>
	<path class="st0" d="M19.5,3.5h20.9c2.7,0,4.8,2.2,4.8,4.8v43.4c0,2.7-2.2,4.8-4.8,4.8H19.5c-2.7,0-4.8-2.2-4.8-4.8V8.3
		C14.7,5.6,16.9,3.5,19.5,3.5z"/>
	<line class="st0" x1="30.5" y1="51.8" x2="29.5" y2="51.8"/>
	<path class="st0" d="M37.2,6.5v0.3c0,1.1-0.9,1.9-1.9,1.9H24.6c-1.1,0-1.9-0.9-1.9-1.9V6.5"/>
	<polyline class="st1" points="26.2,29.5 29.3,32.6 34.3,27.5 	"/>
	<path class="st1" d="M30,18.9c0,0-4.8,3.7-8.7,3.7V32c0,1.9,0.8,3.7,2.1,4.7c1.4,1,5.6,3.8,5.7,3.9l0.9,0.6l0.9-0.6
		c0.2-0.1,4.3-2.9,5.7-3.9c1.3-1,2.1-2.7,2.1-4.7v-9.4C34.8,22.6,30,18.9,30,18.9z"/>
</g>
</svg>
