<?xml version="1.0" encoding="utf-8"?>
<!-- Generator: Adobe Illustrator 27.2.0, SVG Export Plug-In . SVG Version: 6.00 Build 0)  -->
<svg version="1.1" id="Layer_2_00000085956325934909748280000011915871456466423707_"
	 xmlns="http://www.w3.org/2000/svg" xmlns:xlink="http://www.w3.org/1999/xlink" x="0px" y="0px" viewBox="0 0 60 60"
	 style="enable-background:new 0 0 60 60;" xml:space="preserve">
<style type="text/css">
	.st0{fill:none;stroke:#333333;stroke-width:1.5;stroke-linecap:round;stroke-linejoin:round;stroke-miterlimit:10;}
	.st1{fill:none;stroke:#009CDE;stroke-width:1.5;stroke-linecap:round;stroke-linejoin:round;stroke-miterlimit:10;}
</style>
<g>
	<line class="st0" x1="18.5" y1="55.4" x2="40.5" y2="55.4"/>
	<ellipse class="st1" cx="17.6" cy="21.4" rx="8.6" ry="8.1"/>
	<polyline class="st1" points="17.6,13.3 17.6,20.9 26.2,20.9 	"/>
	<path class="st0" d="M22.3,55.4c2.6-3.3,3.8-6.6,3.8-10.5"/>
	<path class="st0" d="M36.7,55.4c-2.6-3.3-3.8-6.6-3.8-10.5"/>
	<line class="st0" x1="2.6" y1="38.1" x2="57.4" y2="38.1"/>
	<path class="st0" d="M2.2,7c0-1.1,1.2-2.4,2.4-2.4c50.7,0,50.7,0,50.7,0c1.2,0,2.4,1.1,2.4,2.4c0,35.5,0,35.5,0,35.5
		c0,1.1-1.2,2.4-2.4,2.4c-50.7,0-50.7,0-50.7,0c-1.2,0-2.4-1.1-2.4-2.4C2.3,42.5,2.3,7,2.2,7z"/>
	<polyline class="st1" points="32.9,17.8 36.6,13.4 44,19 50.1,12.3 	"/>
	<line class="st1" x1="48.2" y1="31.4" x2="48.2" y2="27.6"/>
	<line class="st1" x1="42.4" y1="31.4" x2="42.4" y2="25.7"/>
	<line class="st1" x1="37.7" y1="31.4" x2="37.7" y2="23.8"/>
	<line class="st1" x1="32.9" y1="31.4" x2="32.9" y2="27.6"/>
</g>
</svg>
