<?xml version="1.0" encoding="utf-8"?>
<!-- Generator: Adobe Illustrator 27.2.0, SVG Export Plug-In . SVG Version: 6.00 Build 0)  -->
<svg version="1.1" id="Layer_2_00000085956325934909748280000011915871456466423707_"
	 xmlns="http://www.w3.org/2000/svg" xmlns:xlink="http://www.w3.org/1999/xlink" x="0px" y="0px" viewBox="0 0 60 60"
	 style="enable-background:new 0 0 60 60;" xml:space="preserve">
<style type="text/css">
	.st0{fill:none;stroke:#333333;stroke-width:1.5;stroke-miterlimit:10;}
	.st1{fill:none;stroke:#009CDE;stroke-width:1.5;stroke-miterlimit:10;}
</style>
<g>
	<g>
		<path id="XMLID_124_" class="st0" d="M6.8,27.6C6.8,14.8,17.2,4.4,30,4.4s23.2,10.4,23.2,23.2"/>
		<path id="XMLID_123_" class="st0" d="M51.3,41h-1.6V27.4h1.6c3.7,0,6.8,3,6.8,6.8l0,0C58.1,38,55.1,41,51.3,41z"/>
		<path id="XMLID_122_" class="st0" d="M47.7,43.7L47.7,43.7c-1.1,0-2.1-0.9-2.1-2.1V26.8c0-1.1,0.9-2.1,2.1-2.1l0,0
			c1.7,0,2.1,1.3,2,2.7l0.1,14.2C49.8,42.8,48.8,43.7,47.7,43.7z"/>
		<path id="XMLID_121_" class="st0" d="M12.3,43.7L12.3,43.7c1.1,0,2.1-0.9,2.1-2.1V26.8c0-1.1-0.9-2.1-2.1-2.1l0,0
			c-1.1,0-2.1,0.9-2.1,2.1v14.8C10.3,42.7,11.2,43.7,12.3,43.7z"/>
		<path id="XMLID_120_" class="st0" d="M8.7,41h1.5l0-13.5l-1.5-0.1c-3.7,0-6.8,3-6.8,6.8l0,0C1.9,38,4.9,41,8.7,41z"/>
		<path id="XMLID_119_" class="st0" d="M35.1,55.6h2.4c6.7,0,12.2-5.5,12.2-12.2v-1.8"/>
		<path id="XMLID_118_" class="st0" d="M35.2,55.6h-2.6c-1.2,0-2.2-1-2.2-2.2l0,0c0-1.2,1-2.2,2.2-2.2h2.6c1.2,0,2.2,1,2.2,2.2l0,0
			C37.4,54.7,36.4,55.6,35.2,55.6z"/>
	</g>
	<g>
		<line class="st1" x1="24.1" y1="34.2" x2="25.6" y2="34.2"/>
		<line class="st1" x1="29.3" y1="34.2" x2="30.7" y2="34.2"/>
		<line class="st1" x1="34.4" y1="34.2" x2="35.9" y2="34.2"/>
	</g>
</g>
</svg>
