<?xml version="1.0" encoding="utf-8"?>
<!-- Generator: Adobe Illustrator 27.2.0, SVG Export Plug-In . SVG Version: 6.00 Build 0)  -->
<svg version="1.1" id="Layer_1" xmlns="http://www.w3.org/2000/svg" xmlns:xlink="http://www.w3.org/1999/xlink" x="0px" y="0px"
	 viewBox="0 0 60 60" style="enable-background:new 0 0 60 60;" xml:space="preserve">
<style type="text/css">
	.st0{fill:none;stroke:#333333;stroke-width:1.5;stroke-linecap:round;stroke-linejoin:round;}
	.st1{fill:none;stroke:#009CDE;stroke-width:1.5;stroke-linecap:round;stroke-linejoin:round;}
</style>
<g>
	<path class="st0" d="M5.5,51h13.8"/>
	<path class="st0" d="M13,51l5.2-6.4"/>
	<path class="st0" d="M19.3,44.6H4.9c-1.6,0-3-1.3-3-3V11.9c0-1.6,1.3-3,3-3h49.3v10.3"/>
	<path class="st0" d="M49.4,19.2v-4c0-0.8-0.7-1.6-1.6-1.6H8.2c-0.8,0-1.6,0.7-1.6,1.6v23c0,0.8,0.7,1.6,1.6,1.6h11.2"/>
	<path class="st1" d="M26.1,26.7v-3h17.1c0.8,1.2,1.7,2.5,2.5,3.7 M51.3,27.4c1-1.2,2-2.4,3-3.6h2c0,1.3,0,2.6,0,3.9"/>
	<path class="st1" d="M56.3,23.8c-4.8,0-9.6-0.1-14.4-0.1"/>
	<path class="st1" d="M57.9,48.1c0,1.6-1.3,3-3,3H23.7V30.4c0-1.6,1.3-3,3-3h28.4c1.6,0,3,1.3,3,3L57.9,48.1L57.9,48.1L57.9,48.1z"
		/>
	<path class="st1" d="M28.4,33.7c0-0.8,0.7-1.6,1.6-1.6h21.7c0.8,0,1.6,0.7,1.6,1.6v10.2c0,0.8-0.7,1.6-1.6,1.6H29.9
		c-0.8,0-1.6-0.7-1.6-1.6L28.4,33.7z"/>
</g>
</svg>
